<?xml version="1.0" standalone="no"?>
<!DOCTYPE svg PUBLIC "-//W3C//DTD SVG 20010904//EN"
 "http://www.w3.org/TR/2001/REC-SVG-20010904/DTD/svg10.dtd">
<svg version="1.0" xmlns="http://www.w3.org/2000/svg"
 width="535.000000pt" height="535.000000pt" viewBox="0 0 535.000000 535.000000"
 preserveAspectRatio="xMidYMid meet">
<metadata>
Created by potrace 1.14, written by Peter Selinger 2001-2017
</metadata>
<g transform="translate(0.000000,535.000000) scale(0.100000,-0.100000)"
fill="#000000" stroke="none">
<path d="M2477 4829 c-9 -6 -22 -7 -27 -4 -6 3 -10 2 -10 -2 0 -5 -20 -8 -45
-7 -25 1 -42 -2 -39 -7 3 -5 -9 -7 -25 -5 -17 2 -40 -4 -52 -12 -12 -9 -19
-10 -15 -4 4 7 3 12 -3 12 -5 0 -13 -5 -16 -10 -5 -8 -12 -7 -23 2 -13 11 -14
11 -7 -1 6 -11 4 -13 -8 -8 -10 3 -17 2 -17 -4 0 -6 -4 -7 -10 -4 -5 3 -10 1
-10 -4 0 -6 -5 -11 -11 -11 -5 0 -7 6 -3 13 4 6 -3 3 -16 -8 -13 -11 -20 -14
-16 -8 5 9 2 11 -8 7 -9 -3 -16 -11 -16 -18 0 -7 -4 -6 -9 3 -6 9 -11 10 -15
2 -4 -6 -12 -9 -17 -6 -5 4 -9 2 -9 -3 0 -6 -7 -13 -16 -16 -9 -4 -13 -2 -8 5
5 8 1 8 -13 0 -11 -6 -23 -7 -27 -4 -3 3 -6 1 -6 -6 0 -7 -4 -10 -9 -7 -12 8
-42 -4 -36 -14 3 -5 -4 -6 -15 -3 -13 3 -22 -1 -26 -12 -5 -13 -9 -14 -15 -3
-7 10 -9 8 -9 -7 0 -14 -3 -16 -11 -8 -9 9 -15 8 -26 -3 -8 -8 -19 -12 -24 -9
-5 4 -9 1 -9 -5 0 -7 -7 -10 -15 -6 -8 3 -15 0 -15 -5 0 -7 -9 -9 -21 -6 -17
5 -18 3 -7 -11 8 -10 9 -13 1 -9 -6 4 -27 -1 -46 -12 -19 -11 -38 -17 -43 -13
-4 4 -4 1 0 -5 5 -9 0 -13 -12 -13 -11 0 -25 -7 -32 -15 -7 -8 -19 -15 -27
-15 -7 0 -16 -7 -19 -15 -5 -13 -9 -13 -22 -3 -10 9 -13 9 -9 1 4 -7 -1 -14
-13 -18 -11 -4 -18 -10 -15 -15 3 -5 -3 -7 -15 -5 -11 2 -23 -1 -26 -7 -5 -7
-2 -8 6 -3 9 6 11 4 6 -4 -5 -7 -14 -10 -22 -7 -8 3 -14 1 -14 -5 0 -6 -5 -9
-12 -7 -6 2 -20 -4 -30 -14 -10 -10 -24 -16 -30 -12 -7 4 -8 3 -4 -4 4 -7 2
-12 -3 -12 -6 0 -10 -5 -8 -11 1 -6 -9 -13 -22 -14 -13 -1 -30 -10 -37 -20 -8
-11 -14 -15 -14 -11 0 5 -7 3 -15 -4 -8 -7 -12 -16 -9 -21 3 -5 -2 -6 -11 -3
-10 4 -15 2 -13 -7 2 -8 -4 -13 -14 -11 -9 1 -20 -3 -24 -9 -4 -8 -3 -9 4 -5
7 4 12 5 12 1 0 -3 -12 -10 -26 -15 -14 -6 -28 -19 -31 -30 -3 -11 -9 -17 -14
-14 -8 5 -13 -10 -10 -29 1 -5 -3 -6 -8 -3 -5 4 -12 -3 -16 -14 -3 -11 -11
-19 -16 -17 -5 1 -17 -11 -27 -28 -23 -40 -38 -55 -46 -47 -4 3 -4 -1 0 -11 4
-11 0 -19 -10 -23 -9 -3 -16 -15 -16 -26 0 -10 -4 -16 -10 -13 -5 3 -10 -1
-10 -10 0 -9 -4 -13 -10 -10 -6 4 -7 -1 -3 -11 5 -13 3 -15 -7 -9 -8 5 -11 3
-8 -6 2 -7 -6 -23 -19 -35 -14 -13 -24 -25 -24 -28 3 -21 0 -26 -11 -20 -8 5
-9 2 -5 -9 4 -11 1 -17 -9 -17 -8 0 -12 -4 -9 -10 3 -5 1 -10 -5 -10 -6 0 -9
-4 -5 -9 3 -5 -4 -16 -15 -24 -11 -7 -17 -17 -14 -20 4 -3 -5 -17 -20 -30 -14
-13 -22 -27 -18 -31 4 -4 -2 -14 -12 -22 -11 -8 -16 -14 -12 -14 4 0 -3 -14
-15 -32 -14 -18 -17 -28 -8 -24 7 4 6 1 -5 -8 -10 -8 -16 -18 -13 -23 3 -4 -1
-13 -8 -20 -11 -10 -15 -10 -18 0 -3 7 -4 -5 -2 -25 1 -24 -2 -35 -8 -31 -6 4
-8 0 -4 -10 4 -10 2 -16 -6 -14 -7 1 -11 -4 -9 -12 1 -7 -2 -19 -8 -25 -5 -7
-7 -16 -3 -19 3 -4 1 -7 -6 -7 -7 0 -9 -4 -6 -10 3 -5 0 -10 -7 -10 -10 0 -9
-3 2 -10 12 -8 12 -10 -3 -16 -9 -3 -17 -10 -17 -16 0 -5 6 -6 13 -3 6 4 4 0
-7 -9 -12 -10 -17 -23 -14 -40 3 -14 2 -24 -1 -22 -4 3 -11 -7 -18 -20 -6 -13
-7 -22 -2 -18 5 3 9 0 9 -5 0 -6 -5 -11 -11 -11 -6 0 -9 -7 -6 -15 4 -8 2 -17
-3 -20 -5 -3 -6 -13 -3 -22 4 -10 2 -14 -4 -10 -6 4 -8 -3 -5 -18 3 -17 0 -25
-9 -25 -11 0 -11 -2 1 -10 9 -6 10 -10 3 -10 -6 0 -10 -9 -8 -20 2 -11 -1 -20
-7 -20 -7 0 -6 -6 2 -15 9 -11 10 -15 1 -15 -8 0 -10 -8 -6 -19 3 -11 1 -22
-5 -26 -5 -3 -10 -11 -10 -16 0 -6 5 -7 11 -3 8 4 7 0 0 -15 -7 -12 -10 -39
-8 -61 2 -22 0 -40 -5 -40 -5 0 -6 -5 -2 -11 3 -6 0 -15 -7 -20 -12 -7 -12 -9
0 -9 10 0 11 -3 2 -14 -9 -10 -8 -16 4 -26 12 -10 12 -15 -1 -35 -10 -16 -12
-25 -4 -30 6 -3 8 -10 5 -15 -10 -17 -12 -71 -3 -76 6 -4 5 -10 -3 -15 -12 -7
-12 -9 0 -9 11 0 11 -3 0 -17 -10 -12 -11 -15 -1 -9 9 6 11 1 8 -18 -3 -14 -8
-31 -12 -37 -4 -7 -3 -9 3 -6 6 4 11 -4 11 -18 0 -15 -5 -22 -12 -19 -6 3 -2
-2 9 -11 16 -13 17 -17 6 -24 -9 -6 -10 -10 -2 -16 9 -5 9 -11 -1 -23 -11 -13
-11 -14 1 -7 11 6 13 2 8 -23 -4 -19 -2 -32 3 -32 6 0 10 -5 10 -11 0 -5 -5
-7 -11 -3 -7 4 -7 -1 1 -16 7 -12 10 -33 7 -46 -3 -15 1 -28 10 -33 18 -10 19
-21 1 -32 -10 -7 -10 -9 0 -9 8 0 11 -9 8 -25 -3 -17 -1 -23 6 -19 7 5 9 1 5
-9 -3 -10 -3 -17 1 -17 7 0 11 -23 15 -81 1 -16 7 -25 14 -22 7 3 10 -3 6 -16
-3 -12 -1 -21 5 -21 6 0 9 -9 7 -20 -2 -11 0 -20 6 -20 5 0 9 -5 9 -11 0 -5
-6 -7 -12 -4 -7 4 -2 -3 11 -14 14 -13 18 -21 10 -21 -9 -1 -8 -4 4 -11 13 -8
15 -14 7 -30 -8 -15 -8 -19 2 -17 8 2 13 -6 12 -19 0 -12 3 -20 8 -17 4 3 8
-4 8 -15 0 -13 7 -21 18 -21 9 0 13 -4 7 -8 -5 -4 -11 -13 -13 -21 -2 -11 0
-12 10 -3 11 9 14 5 16 -15 1 -15 5 -29 10 -32 4 -3 13 -17 20 -30 11 -19 11
-22 0 -16 -7 4 1 -5 17 -20 17 -14 24 -24 17 -20 -19 10 -14 -9 8 -28 12 -10
18 -22 15 -27 -3 -5 4 -11 15 -15 11 -3 20 -11 20 -17 0 -6 -7 -5 -17 3 -15
13 -15 12 -2 -8 8 -13 20 -23 27 -23 7 0 11 -4 7 -9 -3 -5 -1 -12 5 -16 6 -4
7 -11 4 -17 -5 -7 -1 -9 9 -5 9 3 16 3 16 -1 -2 -15 14 -52 22 -52 5 0 9 -7 9
-15 0 -8 5 -15 10 -15 6 0 10 -7 10 -15 0 -8 9 -19 20 -25 11 -6 20 -18 20
-26 0 -8 4 -13 9 -9 6 3 8 -4 6 -15 -2 -12 1 -20 9 -20 12 0 30 -34 27 -52 0
-4 6 -5 14 -2 9 4 15 0 15 -9 0 -8 7 -17 15 -21 8 -3 12 -12 9 -20 -4 -11 0
-13 18 -9 13 3 19 1 13 -4 -7 -5 -2 -17 14 -33 13 -14 20 -19 16 -11 -5 9 -4
12 3 7 7 -4 12 -13 12 -20 0 -8 8 -20 17 -27 15 -12 16 -12 8 1 -4 8 1 6 12
-5 11 -11 18 -24 15 -29 -3 -5 -1 -6 5 -3 5 3 24 -7 42 -24 18 -16 37 -26 42
-23 6 3 13 -3 16 -15 3 -12 13 -21 24 -21 11 0 19 -3 19 -8 0 -4 9 -13 21 -20
17 -11 20 -11 14 0 -3 7 3 2 14 -11 12 -13 21 -20 21 -16 0 5 10 0 22 -11 14
-13 19 -14 14 -4 -4 8 -1 7 8 -4 9 -11 20 -15 28 -10 7 4 10 4 6 -1 -5 -5 2
-15 13 -23 18 -12 23 -13 30 -1 6 10 9 8 9 -8 0 -16 6 -23 19 -23 11 0 23 -4
26 -10 3 -5 17 -10 31 -10 14 0 23 -4 20 -8 -7 -11 25 -29 47 -26 9 1 17 -4
17 -12 0 -8 5 -14 11 -14 5 0 7 6 3 13 -4 6 4 1 19 -12 14 -12 30 -20 36 -16
6 3 11 1 11 -5 0 -7 7 -10 15 -6 8 3 15 1 15 -4 0 -5 7 -7 15 -3 9 3 15 2 14
-3 -4 -21 2 -26 16 -14 12 10 16 9 21 -4 4 -11 13 -15 26 -10 14 4 18 2 14 -5
-5 -7 2 -11 18 -11 13 0 27 -6 29 -12 4 -10 6 -10 6 0 1 10 5 10 17 -2 17 -18
39 -22 29 -6 -3 6 1 7 9 4 9 -3 16 -10 16 -14 0 -4 10 -8 23 -8 32 0 51 -6 59
-17 5 -6 8 -5 8 3 0 7 5 10 10 7 6 -4 8 -11 5 -16 -3 -5 1 -6 10 -3 8 4 23 0
32 -7 12 -10 15 -10 9 -1 -4 7 -1 12 8 12 9 0 16 -5 16 -11 0 -5 5 -7 11 -3 6
3 15 0 20 -7 5 -8 9 -9 9 -4 0 7 15 9 35 7 19 -2 33 -7 30 -11 -2 -4 2 -8 10
-8 8 0 11 5 8 11 -5 8 -3 8 8 0 8 -6 25 -10 39 -10 14 1 28 -3 32 -9 5 -6 8
-5 8 3 0 7 5 10 11 6 6 -3 39 -7 74 -8 35 -1 67 -5 71 -9 4 -4 13 -2 21 4 10
9 17 8 30 -2 9 -8 14 -9 11 -3 -4 6 8 10 34 11 27 1 36 -2 27 -8 -9 -6 -10 -9
-2 -9 6 0 15 4 18 10 3 5 24 8 46 7 21 -2 39 -1 39 2 0 12 70 9 71 -2 0 -7 4
-3 9 8 5 11 9 14 9 6 1 -11 4 -11 16 -1 8 7 15 9 15 5 0 -4 8 -1 17 6 11 10
14 10 9 2 -4 -7 -2 -13 3 -13 6 0 11 4 11 8 0 5 14 6 31 4 24 -3 30 -1 24 8
-6 9 -3 9 13 1 12 -6 23 -7 26 -2 3 5 19 8 35 7 17 -1 28 1 26 4 -2 3 8 10 21
17 13 6 22 7 18 2 -3 -5 0 -9 5 -9 6 0 11 5 11 11 0 5 5 7 11 3 6 -3 15 0 20
7 5 9 9 10 9 2 0 -13 60 5 72 22 5 6 8 5 8 -3 0 -7 5 -10 10 -7 6 4 8 11 5 16
-3 5 1 6 10 3 8 -4 23 0 32 7 11 10 14 10 9 2 -5 -9 -2 -11 8 -7 9 3 16 10 16
14 0 4 9 10 20 13 13 3 18 1 13 -6 -3 -7 2 -5 13 4 10 9 27 15 37 14 9 -2 15
1 12 5 -3 5 -1 11 4 14 5 4 12 2 16 -4 4 -6 12 -5 21 5 9 8 22 15 30 15 9 0
12 5 8 11 -4 7 1 7 16 -1 14 -7 20 -8 16 -1 -4 6 4 13 19 17 14 3 25 10 25 15
0 5 5 9 11 9 5 0 7 -5 3 -12 -5 -7 -3 -8 5 -4 7 5 10 15 6 23 -4 13 -3 13 9 4
11 -9 15 -8 20 4 3 8 10 15 16 15 6 0 8 -6 5 -12 -4 -7 1 -4 10 7 9 11 18 19
20 18 14 -8 25 -1 19 10 -4 6 -4 9 1 5 4 -4 14 -3 22 3 7 6 13 8 13 3 0 -4 7
1 16 12 8 10 13 13 9 7 -3 -7 -2 -13 3 -13 6 0 12 6 15 14 3 8 19 21 36 29 20
10 29 11 25 4 -3 -7 1 -4 10 7 8 10 21 16 29 13 9 -3 14 1 13 10 0 9 6 18 14
20 13 4 13 3 0 -6 -8 -6 -10 -11 -5 -11 13 0 45 36 39 43 -3 3 3 4 13 3 10 0
17 4 16 10 -1 7 5 11 15 10 9 0 16 5 14 12 -1 8 2 11 8 7 5 -3 10 -1 10 6 0 7
3 10 6 7 7 -8 50 34 46 45 -1 5 2 6 7 2 6 -3 15 4 21 15 6 11 18 20 27 20 9 0
14 3 10 6 -8 8 18 34 33 34 7 0 10 7 6 15 -3 9 0 15 10 15 8 0 12 5 9 10 -3 5
-1 10 5 10 6 0 8 5 4 12 -5 9 -2 8 9 -1 15 -12 17 -12 12 2 -4 8 2 23 13 33
30 30 68 88 51 80 -7 -4 -4 1 9 10 12 9 22 25 22 36 0 13 5 18 14 15 10 -4 13
0 11 14 -3 16 -1 18 9 10 10 -8 12 -5 12 12 -1 14 4 21 13 19 12 -3 12 0 1 13
-11 13 -10 15 4 9 12 -4 15 -2 11 9 -4 8 1 17 9 20 9 4 13 15 11 27 -2 11 0
18 6 15 5 -4 9 -1 9 5 0 6 4 8 10 5 6 -4 7 1 3 11 -5 13 -3 15 7 9 10 -6 12
-4 7 8 -3 9 1 18 10 21 9 4 13 9 10 12 -3 4 1 13 9 21 12 12 12 18 2 31 -12
14 -10 14 12 2 23 -12 24 -12 11 3 -7 10 -9 17 -5 17 5 0 15 9 22 21 8 12 9
18 3 14 -6 -3 -11 -2 -11 4 0 5 9 13 20 16 16 5 18 10 10 25 -8 16 -7 18 4 14
11 -4 14 1 12 20 -2 18 0 23 8 17 8 -6 11 -1 13 16 0 15 8 30 16 35 9 4 14 19
12 33 -1 14 1 25 6 25 5 0 6 7 3 15 -4 8 1 17 9 21 9 3 13 13 10 25 -3 10 -1
19 5 19 6 0 9 9 7 21 -3 16 0 19 12 15 13 -5 14 -4 3 9 -10 12 -10 15 1 15 12
0 12 2 1 9 -12 7 -12 12 0 32 7 13 18 27 23 31 6 5 5 8 -2 8 -7 0 -10 7 -7 15
4 8 11 12 18 8 6 -4 5 1 -3 10 -8 11 -9 17 -3 17 6 0 9 6 6 14 -3 8 0 17 6 21
8 5 7 11 -2 23 -9 10 -9 13 -1 9 7 -5 12 -1 12 10 0 30 7 69 16 83 6 9 4 11
-6 5 -11 -7 -12 -6 -2 6 10 12 10 18 0 29 -8 9 -9 11 0 6 6 -3 14 -2 18 4 3 5
1 10 -4 10 -6 0 -11 5 -11 11 0 5 4 8 8 5 5 -3 7 11 6 30 -2 23 0 32 8 28 7
-5 8 -2 2 7 -13 21 -14 39 -2 39 6 0 5 6 -2 15 -10 12 -10 18 1 32 12 15 12
16 -1 8 -13 -8 -13 -7 -1 8 10 13 10 17 1 17 -9 0 -9 4 1 17 10 11 10 14 2 9
-16 -9 -17 6 -1 22 9 9 9 12 -3 12 -12 0 -12 2 1 10 13 9 13 10 0 10 -13 0
-13 1 0 10 13 9 13 10 0 10 -13 0 -13 1 0 10 12 8 12 10 1 10 -10 0 -11 3 -2
13 8 10 7 17 -2 27 -10 10 -9 11 3 5 13 -8 13 -7 1 8 -11 14 -11 17 0 17 10 0
10 3 3 8 -6 4 -10 24 -10 45 1 20 -3 37 -8 37 -6 0 -4 5 4 10 13 9 13 10 0 10
-13 0 -13 1 0 10 12 8 12 10 1 10 -10 0 -11 3 -2 14 9 11 9 16 0 22 -8 5 -9 3
-4 -6 5 -9 4 -11 -4 -6 -6 4 -8 13 -4 19 11 18 12 37 3 37 -5 0 -8 22 -6 49 1
28 -1 48 -5 45 -4 -2 -10 0 -14 6 -3 5 0 10 7 10 9 0 9 3 -2 10 -13 9 -13 10
0 10 13 0 13 1 0 10 -8 5 -11 12 -7 16 4 4 -1 13 -11 21 -16 12 -15 13 3 6 18
-6 18 -5 6 10 -7 9 -10 17 -5 17 5 0 4 4 -2 8 -7 4 -14 27 -17 51 -2 24 -10
47 -17 51 -9 6 -9 9 1 13 11 4 11 6 1 6 -7 1 -10 6 -7 11 3 6 1 10 -4 10 -6 0
-11 14 -11 30 0 17 -5 30 -11 30 -5 0 -7 5 -4 10 4 6 1 18 -6 26 -7 9 -15 26
-16 37 -2 12 -10 25 -18 30 -8 4 -12 14 -9 21 3 8 1 17 -5 21 -6 3 -11 14 -11
24 0 10 -7 24 -15 31 -9 7 -14 19 -11 26 3 8 -4 20 -15 28 -15 10 -17 15 -7
19 9 4 7 6 -5 6 -9 1 -16 4 -16 9 3 19 -2 33 -11 27 -5 -3 -7 0 -4 9 3 9 -3
20 -15 28 -12 7 -21 21 -21 30 0 10 -5 18 -12 18 -6 0 -9 3 -5 6 3 4 1 12 -6
20 -25 28 -33 40 -40 57 -3 9 -11 17 -17 17 -6 0 -8 5 -5 10 3 6 1 10 -5 10
-6 0 -8 5 -5 10 3 6 0 10 -7 10 -7 0 -24 23 -37 50 -13 28 -28 50 -33 50 -5 0
-6 5 -3 10 3 6 1 10 -5 10 -6 0 -9 3 -7 8 7 10 -19 32 -28 24 -4 -4 -6 -2 -5
3 5 22 -1 36 -11 30 -6 -4 -9 0 -7 11 2 11 -2 18 -9 16 -7 -1 -13 7 -13 19 0
11 -3 18 -7 16 -10 -6 -34 19 -26 27 4 3 -1 6 -11 6 -9 0 -14 5 -11 10 3 6 -1
10 -9 10 -9 0 -16 7 -16 17 0 9 -3 13 -6 10 -4 -4 -24 12 -44 34 -25 26 -40
35 -43 27 -4 -8 -6 -7 -6 4 -1 9 -6 20 -13 24 -7 5 -9 2 -4 -7 4 -8 -1 -4 -11
8 -10 13 -30 24 -44 25 -19 2 -25 7 -21 17 3 9 1 12 -6 7 -7 -4 -12 -2 -12 3
0 6 -9 11 -21 11 -11 0 -17 5 -14 10 3 6 -3 10 -14 10 -12 0 -21 6 -21 13 0 8
-4 7 -10 -3 -6 -10 -10 -11 -10 -2 0 6 -7 12 -15 12 -9 0 -18 7 -21 15 -4 8
-14 15 -24 15 -11 0 -22 5 -26 12 -5 7 -2 8 7 3 8 -5 10 -4 6 0 -4 5 -15 10
-24 11 -30 5 -63 27 -56 38 4 6 0 5 -9 -2 -14 -11 -18 -10 -30 6 -13 19 -18
22 -39 22 -5 0 -7 5 -3 11 4 7 1 10 -7 7 -8 -3 -25 4 -38 16 -23 20 -24 20
-18 1 7 -19 6 -19 -11 1 -10 11 -26 20 -36 18 -11 -1 -16 2 -13 10 3 7 -1 13
-9 13 -8 0 -14 -5 -14 -11 -1 -6 -7 0 -15 14 -8 14 -14 19 -15 11 0 -11 -5 -9
-22 5 -12 10 -18 13 -14 7 4 -7 3 -13 -2 -13 -6 0 -13 7 -16 15 -3 9 -11 15
-18 14 -25 -3 -39 1 -34 10 3 4 -6 7 -19 5 -14 -1 -27 2 -30 6 -3 5 -12 7 -19
4 -8 -3 -16 2 -19 13 -5 17 -5 17 -6 0 -1 -16 -3 -17 -16 -3 -8 8 -24 13 -35
11 -11 -2 -20 1 -20 7 0 6 -14 9 -34 6 -21 -2 -32 0 -30 7 2 5 -7 10 -21 10
-14 0 -25 -4 -25 -10 0 -5 -4 -4 -8 2 -5 7 -20 14 -35 15 -15 1 -27 7 -27 12
0 6 -5 5 -12 -2 -17 -17 -31 -15 -24 4 4 10 2 13 -6 8 -11 -7 -53 -10 -60 -4
-5 4 -109 11 -130 9 -7 -1 -22 2 -32 7 -15 6 -17 4 -11 -7 8 -12 6 -12 -8 0
-11 9 -17 10 -17 2 0 -6 -5 -11 -11 -11 -5 0 -8 4 -5 8 4 7 -54 8 -61 2 -8 -7
-30 -5 -42 4 -10 8 -15 7 -19 -2 -3 -10 -7 -10 -19 -1 -12 10 -16 10 -24 -2
-7 -11 -9 -11 -9 0 0 10 -3 11 -13 2 -8 -6 -17 -7 -23 -1 -5 5 -16 5 -27 -1z"/>
</g>
</svg>
